#!OML:ASF F:\twosubjects\two\Thursday\Session 1\Rory.ASF
:FULLY-SPECIFIED
:DEGREES
221
root -3.31646 17.8908 -0.423659 -364.471 31.6338 -358.324
lowerback 2.21895 0.978522 -5.15035
upperback 2.61732 1.35201 -4.85013
thorax 1.45549 0.659843 -2.12205
lowerneck -16.4593 1.40117 1.55652
upperneck 31.2585 1.74206 0.353484
head 13.2549 1.08821 0.169342
rclavicle 5.93869e-014 2.22639e-014
rhumerus -3.27638 39.2686 -71.5032
rradius 107.712
rwrist -17.8509
rhand -17.5197 -5.47237
rfingers 7.12502
rthumb 8.73387 -35.2717
lclavicle 5.93869e-014 2.22639e-014
lhumerus -19.2142 -26.5641 96.9022
lradius 109.316
lwrist 69.8575
lhand -17.4443 63.2111
lfingers 7.12502
lthumb 8.80657 -93.0073
rfemur -12.1464 -0.154263 21.3207
rtibia 39.4969
rfoot -22.2828 -16.0319
rtoes 17.3487
lfemur -17.6994 6.90886 -14.5397
ltibia 21.4406
lfoot 0.329071 24.8569
ltoes 11.9528
222
root -3.32909 17.8822 -0.462115 -364.506 31.1793 -358.366
lowerback 1.83883 1.06081 -5.00834
upperback 2.55713 1.49126 -4.89388
thorax 1.61098 0.730065 -2.24065
lowerneck -16.57 1.42 1.64939
upperneck 31.6411 1.8431 0.0749404
head 13.4468 1.1076 0.0645348
rclavicle 3.26504e-014 3.81667e-014
rhumerus -3.39192 39.1415 -71.4399
rradius 107.87
rwrist -17.9264
rhand -17.0004 -5.28368
rfingers 7.12502
rthumb 9.23496 -35.0614
lclavicle 3.26504e-014 3.81667e-014
lhumerus -19.1389 -26.6474 96.8577
lradius 109.324
lwrist 69.4529
lhand -18.2447 65.0582
lfingers 7.12502
lthumb 8.03413 -94.8855
rfemur -12.302 0.331978 21.3812
rtibia 39.3555
rfoot -21.9129 -16.0583
rtoes 17.934
lfemur -17.8416 6.81292 -14.375
ltibia 21.7338
lfoot -0.317127 25.1768
ltoes 13.9127
223
root -3.34171 17.8786 -0.501019 -364.784 30.7485 -358.402
lowerback 1.76235 1.13971 -4.87991
upperback 2.5314 1.60273 -4.95642
thorax 1.63269 0.788525 -2.37619
lowerneck -16.4479 1.50715 1.80676
upperneck 31.8488 1.98831 -0.0876178
head 13.5151 1.17005 -0.00268539
rclavicle -4.37326e-014 -3.18055e-015
rhumerus -3.5379 39.043 -71.3669
rradius 108.084
rwrist -18.1904
rhand -17.1039 -5.7552
rfingers 7.12502
rthumb 9.13506 -35.5374
lclavicle -4.37326e-014 -3.18055e-015
lhumerus -18.963 -26.826 96.7077
lradius 109.372
lwrist 69.1949
lhand -17.3363 64.8701
lfingers 7.12502
lthumb 8.91083 -94.6619
rfemur -12.1379 0.672975 21.4365
rtibia 39.1321
rfoot -21.4322 -16.1588
rtoes 16.8548
lfemur -17.77 6.47418 -14.1397
ltibia 22.2377
lfoot -2.12631 25.5915
ltoes 19.1185
224
root -3.35559 17.9002 -0.543975 -365.29 30.53 -358.442
lowerback 2.00846 1.09264 -4.76831
upperback 2.60346 1.52643 -5.00249
thorax 1.57244 0.753615 -2.4904
lowerneck -16.4446 1.71316 2.03687
upperneck 32.0389 2.27432 -0.231933
head 13.6057 1.30379 -0.0515825
rclavicle 6.48535e-015 -4.6118e-014
rhumerus -3.40532 39.0512 -71.2175
rradius 108.221
rwrist -18.4515
rhand -17.427 -5.93798
rfingers 7.12502
rthumb 8.82327 -35.7335
lclavicle 6.48535e-015 -4.6118e-014
lhumerus -18.7663 -26.9166 96.4397
lradius 109.635
lwrist 69.0558
lhand -17.5032 65.7799
lfingers 7.12502
lthumb 8.7498 -95.5785
rfemur -11.7083 0.715382 21.4681
rtibia 39.0898
rfoot -21.2522 -16.1644
rtoes 15.1939
lfemur -17.2085 5.84759 -13.8705
ltibia 22.3933
lfoot -4.27789 25.8423
ltoes 24.1476
225
root -3.36764 17.9328 -0.579268 -365.522 30.4227 -358.45
lowerback 1.96723 0.966356 -4.72852
upperback 2.59531 1.36184 -5.04983
thorax 1.58775 0.672355 -2.55983
lowerneck -16.6828 1.84367 1.88815
upperneck 32.5143 2.48368 -0.114015
head 13.8637 1.39333 0.0621201
rclavicle -4.09062e-014 -4.45278e-014
rhumerus -3.48132 39.2597 -71.3088
rradius 108.516
rwrist -18.751
rhand -17.5603 -6.43958
rfingers 7.12502
rthumb 8.6947 -36.2405
lclavicle -4.09062e-014 -4.45278e-014
lhumerus -18.673 -26.9475 96.1881
lradius 109.807
lwrist 68.7995
lhand -17.5794 66.3818
lfingers 7.12502
lthumb 8.67625 -96.1835
rfemur -11.5193 0.659953 21.4444
rtibia 39.0622
rfoot -21.1619 -16.0455
rtoes 14.6512
lfemur -16.772 5.10132 -13.6329
ltibia 22.5134
lfoot -6.8831 25.8567
ltoes 28.6526
226
root -3.36554 17.8702 -0.60249 -365.702 30.2568 -358.527
lowerback 1.72984 0.932968 -4.6274
upperback 2.57743 1.33648 -5.07938
thorax 1.70512 0.66027 -2.64268
lowerneck -16.804 1.85476 1.56214
upperneck 32.907 2.54272 0.104555
head 14.0551 1.40955 0.221604
rclavicle -8.09426e-015 -1.43125e-014
rhumerus -3.70338 39.1842 -71.3714
rradius 108.798
rwrist -18.9325
rhand -17.323 -6.98917
rfingers 7.12502
rthumb 8.92367 -36.7805
lclavicle -8.09426e-015 -1.43125e-014
lhumerus -18.5167 -27.3553 95.9383
lradius 109.809
lwrist 68.7912
lhand -17.7205 66.8672
lfingers 7.12502
lthumb 8.54007 -96.6745
rfemur -11.6688 0.59278 21.4594
rtibia 39.2947
rfoot -21.0558 -15.7454
rtoes 15.0083
lfemur -17.0064 6.29792 -13.8439
ltibia 22.4454
lfoot -2.58999 25.5324
ltoes 17.78
227
root -3.37056 17.8429 -0.631665 -366.001 30.0392 -358.635
lowerback 1.65804 0.949224 -4.52944
upperback 2.5849 1.36533 -5.10476
thorax 1.75624 0.676097 -2.72252
lowerneck -16.6577 1.92955 1.7023
upperneck 32.9801 2.66916 -0.04692
head 14.0615 1.46197 0.156505
rclavicle -1.37907e-014 1.59028e-015
rhumerus -3.83885 38.9259 -71.277
rradius 108.982
rwrist -19.0578
rhand -17.3555 -6.87127
rfingers 7.12502
rthumb 8.89229 -36.6639
lclavicle -1.37907e-014 1.59028e-015
lhumerus -18.3731 -27.9139 95.631
lradius 109.929
lwrist 68.8681
lhand -17.5796 67.5257
lfingers 7.12502
lthumb 8.67608 -97.3275
rfemur -11.7144 0.483888 21.5189
rtibia 39.5538
rfoot -20.8835 -15.4495
rtoes 15.1249
lfemur -16.8487 6.84781 -13.7759
ltibia 22.3035
lfoot -0.976777 25.1575
ltoes 13.6927
228
root -3.37794 17.8369 -0.664007 -366.03 29.7257 -358.511
lowerback 1.46221 0.966929 -4.64918
upperback 2.54143 1.40307 -5.17908
thorax 1.82165 0.693124 -2.72976
lowerneck -16.4676 2.05023 2.07808
upperneck 32.952 2.8568 -0.406186
head 14.0234 1.5412 -0.0245066
rclavicle -3.42158e-014 3.65764e-014
rhumerus -3.9895 38.8276 -71.1956
rradius 109.176
rwrist -19.2074
rhand -17.9351 -6.25902
rfingers 7.12502
rthumb 8.33295 -36.0747
lclavicle -3.42158e-014 3.65764e-014
lhumerus -18.2817 -28.2471 95.4576
lradius 110.07
lwrist 68.5887
lhand -16.9257 67.7343
lfingers 7.12502
lthumb 9.307 -97.5089
rfemur -11.9085 0.621233 21.3951
rtibia 39.9032
rfoot -20.9958 -15.3816
rtoes 14.7703
lfemur -16.6762 7.34492 -13.9404
ltibia 21.8822
lfoot 1.48294 24.5874
ltoes 6.31985
229
root -3.38155 17.8368 -0.692211 -365.682 29.3409 -358.093
lowerback 0.955577 0.98043 -5.01876
upperback 2.46096 1.46206 -5.3086
thorax 2.02042 0.715379 -2.64957
lowerneck -16.463 2.15354 2.30231
upperneck 33.0583 3.02523 -0.645063
head 14.082 1.60875 -0.130647
rclavicle 3.44146e-014 -1.59028e-015
rhumerus -4.16509 38.6229 -71.1642
rradius 109.454
rwrist -19.1222
rhand -17.7849 -5.90134
rfingers 7.12502
rthumb 8.47796 -35.7112
lclavicle 3.44146e-014 -1.59028e-015
lhumerus -18.2426 -28.5733 95.3608
lradius 110.375
lwrist 68.3606
lhand -16.7633 68.0123
lfingers 7.12502
lthumb 9.46373 -97.7798
rfemur -12.2635 1.09432 21.0099
rtibia 40.0209
rfoot -20.9437 -15.559
rtoes 14.271
lfemur -16.8133 7.69437 -14.3993
ltibia 21.7045
lfoot 3.7099 24.0397
ltoes -2.13563
230
root -3.3848 17.8435 -0.720271 -365.393 29.1319 -357.646
lowerback 0.529433 0.954808 -5.44266
upperback 2.39222 1.46846 -5.45795
thorax 2.18511 0.710849 -2.56184
lowerneck -16.6622 2.17623 2.22695
upperneck 33.441 3.05581 -0.540396
head 14.2952 1.62636 -0.064616
rclavicle 2.84262e-014 1.90833e-014
rhumerus -4.41586 38.2289 -71.1611
rradius 109.864
rwrist -19.0881
rhand -17.1553 -6.22996
rfingers 7.12502
rthumb 9.08547 -36.0143
lclavicle 2.84262e-014 1.90833e-014
lhumerus -18.275 -28.9764 95.2671
lradius 110.741
lwrist 68.359
lhand -17.2237 68.5236
lfingers 7.12502
lthumb 9.01946 -98.3108
rfemur -12.5013 1.43103 20.5484
rtibia 40.0105
rfoot -20.6731 -15.6477
rtoes 13.5789
lfemur -16.7601 7.14603 -14.6798
ltibia 21.6522
lfoot 2.25127 24.7001
ltoes 1.11295
231
root -3.38908 17.8521 -0.751459 -365.768 29.0917 -357.544
lowerback 0.731449 0.930618 -5.54288
upperback 2.43804 1.42368 -5.51708
thorax 2.11834 0.688509 -2.57149
lowerneck -16.8809 2.13713 1.93765
upperneck 33.8278 3.01555 -0.295022
head 14.5081 1.6057 0.0851507
rclavicle -4.53726e-014 6.36111e-015
rhumerus -4.5137 37.8412 -70.9608
rradius 110.19
rwrist -19.4595
rhand -16.9946 -6.51917
rfingers 7.12502
rthumb 9.2406 -36.2967
lclavicle -4.53726e-014 6.36111e-015
lhumerus -18.2028 -29.4121 95.2552
lradius 110.81
lwrist 68.2034
lhand -17.526 69.1891
lfingers 7.12502
lthumb 8.72776 -98.9887
rfemur -12.076 1.41302 20.3929
rtibia 39.899
rfoot -20.5965 -15.4437
rtoes 13.8862
lfemur -16.3153 6.93836 -14.708
ltibia 21.7557
lfoot 1.66481 24.5749
ltoes 0.842788
